# xmcd
#
# Track frame offsets: 
#        150
#        12865
#        29911
#        57995
#        74634
#        90296
#        108791
#        126724
#
# Disc length: 1875 seconds
#
# Revision: 0
# Processed by: cddbd v1.5.2PL0 Copyright (c) Steve Scherf et al.
# Submitted via: ExactAudioCopyFreeDBPlugin 1.0
#
DISCID=6f075108
DTITLE=The Peregrines - Introducing
DYEAR=2016
DGENRE=Bluegrass
TTITLE0=Life On The Road
TTITLE1=Blake's Reel
TTITLE2=Danny Barnes
TTITLE3=Waiting on You
TTITLE4=Wildwood Flowers
TTITLE5=Whiskey Before Breakfast
TTITLE6=Goodbye Liza Jane
TTITLE7=Melody For Jules
EXTD=
EXTT0=
EXTT1=
EXTT2=
EXTT3=
EXTT4=
EXTT5=
EXTT6=
EXTT7=
PLAYORDER=
